# xmcd
#
# Track frame offsets:
#	150
#	7757
#	18801
#	30283
#	42596
#	51639
#	62293
#	73472
#	83430
#	92712
#	101910
#	111555
#	122219
#	133417
#	144463
#	155291
#	164056
#	176920
#	188451
#	196750
#	207874
#	215887
#	227640
#	237996
#	247923
#	255891
#
# Disc length: 3559 seconds
#
# Revision: 0
# Processed by: cddbd v1.4PL0 Copyright (c) Steve Scherf et al.
# Submitted via: EasyCDDAExtractor 4.6.0.1
#
DISCID=6d0de51a
DTITLE=Various Artist - Explosive Doo-Wops  Vol 11
DYEAR=1900
DGENRE=Blues
TTITLE0=Marx - One Minute More
TTITLE1=Roulettes (Billy Gallant and the) - Scribbling On The Wall
TTITLE2=Rochester Collegiates (Lee Adrian and the) - School Is Over
TTITLE3=Spiedels - No
TTITLE4=Blendairs - My Love Is Just For You
TTITLE5=Irridescents - Hey There
TTITLE6=Ernie Maresca and group - Please Be Fair
TTITLE7=Robins - White Cliffs Of Dover
TTITLE8=Singing Roulettes - Hasten Jason
TTITLE9=Corvairs - Sing A Song Of Sixpence
TTITLE10=Squires - Can't Believe That You've Grown Up
TTITLE11=Mood Makers - Delores
TTITLE12=Blends - Now It's Your Turn
TTITLE13=Edsels - Rama Lama Ding Dong
TTITLE14=Impressors - Do You Love Her
TTITLE15=Impossibles (Linda Carr and the) - Happy Teenager
TTITLE16=Devotions - Teardrops Follow Me
TTITLE17=Freddy Schaeffer and group - Zoom Zoom Zoom
TTITLE18=Del-Chords - Say That You Love Me
TTITLE19=Hideaways - Lovin' Time
TTITLE20=Royal Jesters - Never Will Forget
TTITLE21=Five Shits - Dreaming Of You
TTITLE22=Five Playboys - She's My Baby
TTITLE23=Emerald city Bandits - Come On Oz
TTITLE24=Kappas - Sweet Juanita
TTITLE25=Escorts - Gaudeamus
EXTD=
EXTT0=
EXTT1=
EXTT2=
EXTT3=
EXTT4=
EXTT5=
EXTT6=
EXTT7=
EXTT8=
EXTT9=
EXTT10=
EXTT11=
EXTT12=
EXTT13=
EXTT14=
EXTT15=
EXTT16=
EXTT17=
EXTT18=
EXTT19=
EXTT20=
EXTT21=
EXTT22=
EXTT23=
EXTT24=
EXTT25=
PLAYORDER=
